<?xml version="1.0" standalone="no"?>
<!DOCTYPE svg PUBLIC "-//W3C//DTD SVG 20010904//EN"
  "http://www.w3.org/TR/2001/REC-SVG-20010904/DTD/svg10.dtd">
<svg version="1.0" xmlns="http://www.w3.org/2000/svg" viewBox="0 0 1280.000000 1280.000000"
  preserveAspectRatio="xMidYMid meet">
<metadata>
</metadata>
<g transform="translate(0.000000,1280.000000) scale(0.100000,-0.100000)"
fill="#000000" stroke="none">
<path d="M2542 8511 c-158 -55 -261 -188 -270 -354 -5 -93 15 -183 57 -245 32
-49 2931 -3112 3073 -3247 153 -147 329 -253 531 -320 180 -60 249 -70 472
-70 173 0 214 3 304 23 281 63 506 182 705 372 135 129 3030 3187 3062 3234
74 109 85 273 27 398 -63 135 -188 218 -338 226 -99 5 -178 -14 -250 -63 -31
-20 -628 -644 -1550 -1617 -825 -871 -1522 -1602 -1550 -1625 -55 -45 -141
-91 -225 -119 -43 -15 -84 -19 -190 -19 -123 1 -141 3 -210 29 -118 45 -186
95 -331 243 -74 76 -763 802 -1531 1613 -821 867 -1415 1486 -1440 1502 -95
58 -242 75 -346 39z"/>
</g>
</svg>
