<?xml version="1.0" encoding="iso-8859-1"?>
<!-- Uploaded to: SVG Repo, www.svgrepo.com, Generator: SVG Repo Mixer Tools -->
<!DOCTYPE svg PUBLIC "-//W3C//DTD SVG 1.1//EN" "http://www.w3.org/Graphics/SVG/1.1/DTD/svg11.dtd">
<svg version="1.1" id="Capa_1" xmlns="http://www.w3.org/2000/svg" xmlns:xlink="http://www.w3.org/1999/xlink" 
	  viewBox="0 0 323.365 323.365" xml:space="preserve">
<g>
	<path style="fill:#222220;" d="M265.834,270.637H15V95.26c0-4.143-3.357-7.5-7.5-7.5S0,91.117,0,95.26v182.877
		c0,4.143,3.357,7.5,7.5,7.5h258.334c4.143,0,7.5-3.357,7.5-7.5S269.977,270.637,265.834,270.637z"/>
	<path style="fill:#222220;" d="M315.865,37.729H57.531c-4.143,0-7.5,3.357-7.5,7.5v182.877c0,4.143,3.357,7.5,7.5,7.5h258.334
		c4.143,0,7.5-3.357,7.5-7.5V45.229C323.365,41.086,320.008,37.729,315.865,37.729z M308.365,220.605H65.031V52.729h243.334V220.605
		z"/>
	<path style="fill:#222220;" d="M118.573,209.707c4.143,0,7.5-3.357,7.5-7.5v-0.556c0-20.051,12.488-37.709,30.917-44.569
		c6.999,8.469,17.579,13.875,29.398,13.875h0.619c11.819,0,22.399-5.406,29.398-13.875c18.431,6.859,30.917,24.515,30.917,44.569
		v0.556c0,4.143,3.357,7.5,7.5,7.5s7.5-3.357,7.5-7.5v-0.556c0-25.688-15.581-48.384-38.793-57.888
		c1.04-3.466,1.606-7.135,1.606-10.935v-22.494c0-21.023-17.104-38.128-38.128-38.128h-0.619c-21.023,0-38.128,17.104-38.128,38.128
		v22.494c0,3.8,0.566,7.468,1.605,10.934c-23.211,9.505-38.793,32.207-38.793,57.888v0.556
		C111.073,206.35,114.431,209.707,118.573,209.707z M163.261,110.335c0-12.753,10.375-23.128,23.128-23.128h0.619
		c12.753,0,23.128,10.375,23.128,23.128v22.494c0,4.033-1.04,7.828-2.863,11.132c-0.244,0.345-0.464,0.71-0.65,1.1
		c-4.091,6.536-11.352,10.896-19.615,10.896h-0.619c-8.525,0-15.982-4.64-19.993-11.523c-0.019-0.031-0.035-0.063-0.053-0.093
		c-1.956-3.393-3.082-7.322-3.082-11.512V110.335z"/>
</g>
</svg>
